<?xml version="1.0" encoding="UTF-8"?>
<!DOCTYPE svg PUBLIC "-//W3C//DTD SVG 1.1//EN" "http://www.w3.org/Graphics/SVG/1.1/DTD/svg11.dtd">
<!-- Creator: CorelDRAW -->
<svg xmlns="http://www.w3.org/2000/svg" xml:space="preserve" width="211.678mm" height="103.725mm" version="1.1" style="shape-rendering:geometricPrecision; text-rendering:geometricPrecision; image-rendering:optimizeQuality; fill-rule:evenodd; clip-rule:evenodd"
viewBox="0 0 21167.78 10372.48"
 xmlns:xlink="http://www.w3.org/1999/xlink"
 xmlns:xodm="http://www.corel.com/coreldraw/odm/2003">
 <defs>
  <style type="text/css">
   <![CDATA[
    .str0 {stroke:lightgrey;stroke-width:0.21;stroke-miterlimit:22.9256}
    .fil0 {fill:lightgrey;fill-rule:nonzero}
   ]]>
  </style>
 </defs>
 <g id="Layer_x0020_1">
  <metadata id="CorelCorpID_0Corel-Layer"/>
  <g id="car-top-view-svgrepo-com_x0020__x0028_1_x0029_.svg">
   <g id="SVGRepo_bgCarrier">
   </g>
   <g id="SVGRepo_tracerCarrier">
   </g>
   <g id="SVGRepo_iconCarrier">
    <g>
     <path class="fil0 str0" d="M-4.59 2540.69l0 5292.35c0,1402.86 1560.38,2539.73 2963.24,2539.73l15664.14 0c1402.41,0 2540.18,-1136.87 2540.18,-2539.73l0 -5292.35c0,-1402.41 -1137.32,-2540.18 -2540.18,-2540.18l-15664.14 0c-1402.86,0.9 -2963.24,1137.77 -2963.24,2540.18zm6385.55 -2095.06l5250.04 0 157.97 1228.23 -2163.02 0 -3244.99 -1228.23zm-1536.98 644.5c1755.26,457.27 3830.07,998.7 3830.07,998.7l0.01 6196.52 -3830.07 1000.05c-0.01,-0.45 -1358.31,-3998.4 -0.01,-8195.27zm4923.74 7595.78l2021.7 0 -157.07 1228.68 -5110.07 0.01 3245.44 -1228.69zm7302.34 1228.69l-4662.25 0 154.37 -1228.68 3688.75 0 819.13 1228.68zm1325 -700.76l-1501.42 -998.25 0 -6197.87 1501.42 -998.7 0 8194.82zm-2284.99 -7539.98l-3542.93 0 -159.77 -1228.23 4522.28 0 -819.58 1228.23z"/>
     <g>
     </g>
     <g>
     </g>
     <g>
     </g>
     <g>
     </g>
     <g>
     </g>
     <g>
     </g>
     <g>
     </g>
     <g>
     </g>
     <g>
     </g>
     <g>
     </g>
     <g>
     </g>
     <g>
     </g>
     <g>
     </g>
     <g>
     </g>
     <g>
     </g>
    </g>
   </g>
  </g>
 </g>
</svg>
